<?xml version="1.0" encoding="UTF-8" standalone="no"?>
<svg
   version="1.0"
   width="607.83118pt"
   height="659.93384pt"
   viewBox="0 0 607.83118 659.93384"
   preserveAspectRatio="xMidYMid"
   id="svg3"
   sodipodi:docname="base-logo.svg"
   inkscape:export-filename="../Documents/066134a5-5cca-48ed-92c1-0f7f647ef36a.png"
   inkscape:export-xdpi="96"
   inkscape:export-ydpi="96"
   inkscape:version="1.3.2 (091e20e, 2023-11-25)"
   xmlns:inkscape="http://www.inkscape.org/namespaces/inkscape"
   xmlns:sodipodi="http://sodipodi.sourceforge.net/DTD/sodipodi-0.dtd"
   xmlns:xlink="http://www.w3.org/1999/xlink"
   xmlns="http://www.w3.org/2000/svg"
   xmlns:svg="http://www.w3.org/2000/svg">
  <defs
     id="defs3">
    <linearGradient
       id="linearGradient3"
       inkscape:collect="always">
      <stop
         style="stop-color:#7b0aff;stop-opacity:1;"
         offset="0.19757365"
         id="stop3" />
      <stop
         style="stop-color:#3e46ef;stop-opacity:0.90588236;"
         offset="0.59618717"
         id="stop6" />
      <stop
         style="stop-color:#747ac3;stop-opacity:0.69803923;"
         offset="0.93414211"
         id="stop5" />
      <stop
         style="stop-color:#000000;stop-opacity:0;"
         offset="1"
         id="stop4" />
    </linearGradient>
    <linearGradient
       inkscape:collect="always"
       xlink:href="#linearGradient3"
       id="linearGradient4"
       x1="1255"
       y1="3769.5613"
       x2="8160"
       y2="3769.5613"
       gradientUnits="userSpaceOnUse" />
    <linearGradient
       inkscape:collect="always"
       xlink:href="#linearGradient3"
       id="linearGradient1"
       gradientUnits="userSpaceOnUse"
       x1="1255"
       y1="3769.5613"
       x2="8160"
       y2="3769.5613" />
    <linearGradient
       inkscape:collect="always"
       xlink:href="#linearGradient3"
       id="linearGradient2"
       gradientUnits="userSpaceOnUse"
       x1="1255"
       y1="3769.5613"
       x2="8160"
       y2="3769.5613" />
  </defs>
  <sodipodi:namedview
     id="namedview3"
     pagecolor="#ffffff"
     bordercolor="#000000"
     borderopacity="0.25"
     inkscape:showpageshadow="2"
     inkscape:pageopacity="0.0"
     inkscape:pagecheckerboard="0"
     inkscape:deskcolor="#d1d1d1"
     inkscape:document-units="pt"
     inkscape:zoom="0.57987622"
     inkscape:cx="321.62036"
     inkscape:cy="318.17135"
     inkscape:window-width="1728"
     inkscape:window-height="1052"
     inkscape:window-x="0"
     inkscape:window-y="65"
     inkscape:window-maximized="0"
     inkscape:current-layer="g3" />
  <metadata
     id="metadata1">
Created by potrace 1.16, written by Peter Selinger 2001-2019
</metadata>
  <g
     transform="matrix(0.1,0,0,-0.1,-125.5,753.91228)"
     fill="#000000"
     stroke="none"
     id="g3"
     style="fill:url(#linearGradient4)">
    <path
       d="M 5470,7526 C 5443,7518 5186,7269 4397,6485 3826,5919 3349,5450 3337,5443 c -56,-31 -139,-3 -177,59 -22,37 -25,73 -9,115 5,15 192,210 413,433 222,223 410,419 419,435 32,66 41,129 27,194 -31,145 -148,241 -295,241 -126,-1 -73,46 -1072,-950 -683,-681 -927,-930 -983,-1005 -173,-230 -287,-469 -355,-744 -45,-183 -50,-235 -50,-506 0,-231 3,-272 23,-370 69,-334 187,-602 380,-862 45,-60 287,-311 766,-791 785,-786 744,-752 883,-752 64,0 89,5 129,25 39,19 447,424 1944,1926 1042,1046 1904,1915 1914,1931 10,16 25,55 32,86 29,126 -39,267 -158,326 -73,36 -192,37 -264,2 -38,-19 -206,-182 -754,-731 -388,-389 -723,-720 -744,-736 -47,-35 -103,-39 -151,-9 -55,34 -82,120 -53,173 6,12 478,492 1048,1067 570,575 1043,1056 1050,1069 7,14 19,51 26,83 31,131 -39,271 -164,331 -67,32 -198,31 -262,-2 -32,-16 -309,-287 -927,-905 -486,-484 -895,-886 -910,-893 -89,-39 -183,28 -183,128 0,25 7,56 16,69 9,14 457,466 994,1005 538,539 984,991 991,1005 28,53 39,97 39,163 0,117 -69,221 -177,268 -64,27 -177,26 -241,-3 -37,-17 -245,-219 -1027,-998 -625,-624 -992,-982 -1012,-990 -49,-19 -100,-5 -145,40 -34,33 -38,43 -38,86 0,27 4,55 9,62 4,8 353,359 773,780 610,612 770,777 789,817 17,35 25,72 27,126 3,66 0,83 -22,132 -30,62 -84,116 -147,147 -33,15 -61,20 -123,19 -45,-1 -97,-7 -116,-13 z M 3462,4850 c 150,-30 235,-58 348,-116 296,-152 523,-438 598,-754 26,-108 32,-159 32,-278 0,-245 -60,-443 -197,-652 -45,-68 -147,-176 -502,-532 -245,-247 -452,-448 -461,-448 -9,0 -216,201 -461,448 -359,359 -457,464 -501,532 -138,211 -198,408 -198,650 0,317 116,595 340,820 174,174 369,276 630,329 63,13 308,13 372,1 z"
       id="path1"
       style="fill:url(#linearGradient1)" />
    <path
       d="m 8070,10 c 0,-5 20,-10 45,-10 25,0 45,5 45,10 0,6 -20,10 -45,10 -25,0 -45,-4 -45,-10 z"
       id="path3"
       style="fill:url(#linearGradient2)" />
  </g>
</svg>
